<svg xmlns="http://www.w3.org/2000/svg" viewBox="0 0 240 240" role="img" aria-label="Foto ilustrativa corporativa">
  <defs>
    <linearGradient id="bg" x1="0" y1="0" x2="1" y2="1">
      <stop offset="0" stop-color="#334155"/>
      <stop offset="1" stop-color="#d4a943"/>
    </linearGradient>
    <filter id="shadow" x="-20%" y="-20%" width="140%" height="140%">
      <feDropShadow dx="0" dy="8" stdDeviation="8" flood-color="#071936" flood-opacity=".25"/>
    </filter>
  </defs>
  <rect width="240" height="240" rx="120" fill="url(#bg)"/>
  <circle cx="120" cy="92" r="42" fill="#f0c7a7"/>
  <path d="M78 96c2-38 28-56 58-49 23 5 31 28 28 49-14-15-30-22-46-20-17 1-30 8-40 20Z" fill="#202833"/>
  <path d="M58 211c10-48 42-78 62-78s52 30 62 78" fill="#0f2742" filter="url(#shadow)"/>
  <path d="M94 139h52l-26 61z" fill="#ffffff"/>
  <path d="M116 141h8l8 51-12 17-12-17z" fill="#334155"/>
  <path d="M80 164l28-30 12 75-40-45Zm80 0-28-30-12 75 40-45Z" fill="#102a44"/>
  <circle cx="120" cy="120" r="105" fill="none" stroke="#fff" stroke-width="7" opacity=".85"/>
  <circle cx="120" cy="120" r="116" fill="none" stroke="#fff" stroke-width="2" opacity=".35"/>
  <text x="120" y="118" text-anchor="middle" font-family="Arial, Helvetica, sans-serif" font-size="32" font-weight="800" fill="#ffffff" opacity=".92">FS</text>
</svg>